<svg width="43" height="28" viewBox="0 0 43 28" fill="none" xmlns="http://www.w3.org/2000/svg">
<path fill-rule="evenodd" clip-rule="evenodd" d="M42.4159 7.37681C42.4159 5.15137 40.6053 3.34079 38.3799 3.34079C36.1545 3.34079 34.3442 5.15137 34.3442 7.37681C34.3442 8.44665 34.7633 9.42006 35.4455 10.143C34.2322 11.5002 32.4705 12.3568 30.5114 12.3568C27.3401 12.3568 24.6839 10.1148 24.0413 7.13313C24.7833 6.40081 25.2441 5.38436 25.2441 4.26209C25.2441 2.03665 23.4335 0.226074 21.2081 0.226074C18.9826 0.226074 17.1721 2.03665 17.1721 4.26209C17.1721 5.38436 17.6332 6.4008 18.3749 7.13313C17.7322 10.1148 15.0761 12.3568 11.9047 12.3568C9.94561 12.3568 8.1839 11.5002 6.9707 10.143C7.65286 9.42006 8.07225 8.44665 8.07225 7.37681C8.07225 5.15137 6.26167 3.34079 4.03623 3.34079C1.81079 3.34079 0.000213623 5.15137 0.000213623 7.37681C0.000213623 9.3055 1.36033 10.9216 3.17155 11.3183C3.60097 14.8625 4.51063 19.3347 6.43479 22.3769V26.1032C6.43479 26.7931 6.99398 27.3527 7.68391 27.3527H34.7322C35.4221 27.3527 35.9813 26.7931 35.9813 26.1032V22.3769C37.9055 19.3347 38.8151 14.8628 39.2445 11.3183C41.0558 10.9213 42.4159 9.3055 42.4159 7.37681H42.4159ZM36.8425 7.37681C36.8425 6.52896 37.5321 5.83903 38.3799 5.83903C39.2278 5.83903 39.9177 6.52896 39.9177 7.37681C39.9177 8.22466 39.2278 8.91426 38.3799 8.91426C37.5321 8.91426 36.8425 8.22466 36.8425 7.37681ZM19.6703 4.2621C19.6703 3.41425 20.3603 2.72432 21.2081 2.72432C22.056 2.72432 22.7456 3.41425 22.7456 4.2621C22.7456 5.10995 22.056 5.79955 21.2081 5.79955C20.3603 5.79955 19.6703 5.10995 19.6703 4.2621ZM2.49852 7.37681C2.49852 6.52896 3.18845 5.83903 4.0363 5.83903C4.88415 5.83903 5.57375 6.52896 5.57375 7.37681C5.57375 8.22466 4.88415 8.91426 4.0363 8.91426C3.18845 8.91426 2.49852 8.22466 2.49852 7.37681ZM8.9331 24.8541V23.2546H33.4832V24.8541H8.9331ZM34.0459 20.756H8.37068C7.05587 18.5257 6.30089 15.3925 5.86791 12.5649C7.4772 13.9894 9.59164 14.855 11.9048 14.855C16.0573 14.855 19.5697 12.0646 20.6671 8.26058C20.8441 8.28453 21.0247 8.29779 21.2082 8.29779C21.3917 8.29779 21.5722 8.28452 21.7492 8.26058C22.8466 12.0646 26.359 14.855 30.5115 14.855C32.8253 14.855 34.9411 13.9887 36.5503 12.5629C36.1177 15.3903 35.3627 18.5231 34.046 20.756L34.0459 20.756Z" fill="white"/>
</svg>
