<svg width="320" height="97" viewBox="0 0 320 97" fill="none" xmlns="http://www.w3.org/2000/svg">
<path d="M310.252 49.7311H319.706L315.231 81.5588C314.895 83.9538 314.107 86.0966 312.868 87.9874C311.649 89.8992 310.116 91.5273 308.267 92.8718C306.418 94.2164 304.37 95.2353 302.122 95.9286C299.874 96.6429 297.553 97 295.158 97C292.931 97 290.862 96.5693 288.95 95.708C287.038 94.8676 285.389 93.6912 284.002 92.1786C282.616 90.666 281.597 88.9118 280.946 86.916L290.147 83.0084C290.462 83.9538 290.925 84.7521 291.534 85.4034C292.164 86.0756 292.899 86.5903 293.74 86.9475C294.601 87.3046 295.526 87.4832 296.513 87.4832C297.605 87.4832 298.666 87.3676 299.696 87.1365C300.746 86.9055 301.702 86.5483 302.563 86.0651C303.425 85.5819 304.139 84.9622 304.706 84.2059C305.273 83.4706 305.631 82.5882 305.778 81.5588L306.219 78.4706C305.126 79.542 303.887 80.4139 302.5 81.0861C301.114 81.7374 299.58 82.063 297.899 82.063C295.61 82.063 293.519 81.6323 291.628 80.771C289.759 79.9097 288.173 78.7227 286.87 77.2101C285.568 75.6765 284.622 73.9117 284.034 71.9159C283.467 69.9202 283.341 67.7773 283.656 65.4874C283.971 63.1975 284.696 61.0546 285.83 59.0588C286.986 57.063 288.425 55.3088 290.147 53.7962C291.891 52.2626 293.824 51.0651 295.946 50.2038C298.068 49.3424 300.273 48.9117 302.563 48.9117C304.244 48.9117 305.683 49.2479 306.881 49.9201C308.078 50.5714 309.076 51.4328 309.874 52.5042L310.252 49.7311ZM299.286 72.9874C300.589 72.9874 301.818 72.6512 302.973 71.979C304.149 71.3067 305.137 70.4033 305.935 69.2689C306.733 68.1344 307.227 66.8739 307.416 65.4874C307.605 64.1008 307.458 62.8403 306.975 61.7059C306.513 60.5714 305.788 59.668 304.801 58.9958C303.834 58.3235 302.7 57.9874 301.397 57.9874C300.116 57.9874 298.897 58.3235 297.742 58.9958C296.586 59.668 295.61 60.5714 294.811 61.7059C294.034 62.8403 293.551 64.1008 293.362 65.4874C293.173 66.8739 293.309 68.1344 293.771 69.2689C294.233 70.4033 294.948 71.3067 295.914 71.979C296.881 72.6512 298.004 72.9874 299.286 72.9874Z" fill="#1F1F39"/>
<path d="M280.468 61.1072L277.664 81.2438H268.21L270.668 63.7543C270.815 62.7669 270.699 61.874 270.321 61.0757C269.943 60.2564 269.386 59.6156 268.651 59.1534C267.916 58.6702 267.054 58.4287 266.067 58.4287C265.08 58.4287 264.145 58.6702 263.262 59.1534C262.401 59.6156 261.676 60.2564 261.088 61.0757C260.521 61.874 260.164 62.7669 260.017 63.7543L257.559 81.2438H248.105L252.485 49.7312H261.939L261.687 51.7165C262.863 50.8131 264.155 50.1093 265.563 49.6051C266.991 49.1009 268.451 48.8488 269.943 48.8488C272.212 48.8488 274.187 49.4055 275.867 50.519C277.569 51.6114 278.84 53.082 279.68 54.9308C280.542 56.7795 280.804 58.8383 280.468 61.1072Z" fill="#1F1F39"/>
<path d="M235.867 49.7311H245.321L240.909 81.2437H231.456L235.867 49.7311ZM241.13 46.4538C239.764 46.4538 238.682 46.0021 237.884 45.0987C237.086 44.1954 236.781 43.0714 236.97 41.7269C237.159 40.4034 237.779 39.2899 238.829 38.3866C239.88 37.4622 241.077 37 242.422 37C243.745 37 244.796 37.4622 245.573 38.3866C246.371 39.2899 246.676 40.4034 246.487 41.7269C246.298 43.0714 245.689 44.1954 244.659 45.0987C243.651 46.0021 242.474 46.4538 241.13 46.4538Z" fill="#1F1F39"/>
<path d="M227.029 81.2438H214.676L205.632 65.2984L204.151 66.811L202.134 81.2438H192.68L198.857 37.1261H208.31L206.199 52.1261L220.852 37.1261H233.205L212.848 57.9244L227.029 81.2438Z" fill="#1F1F39"/>
<path d="M172.752 82.0631C169.853 82.0631 167.311 81.3173 165.126 79.8257C162.962 78.3341 161.345 76.3278 160.273 73.8067C159.223 71.2857 158.908 68.5021 159.328 65.4559C159.643 63.166 160.347 61.0231 161.439 59.0273C162.553 57.0105 163.939 55.2458 165.599 53.7332C167.259 52.1996 169.097 51.0021 171.114 50.1408C173.152 49.2794 175.252 48.8488 177.416 48.8488C179.937 48.8488 182.164 49.4055 184.097 50.5189C186.03 51.6114 187.584 53.103 188.761 54.9937C189.958 56.8635 190.683 58.9748 190.935 61.3278C191.208 63.6807 190.935 66.1072 190.116 68.6072H169.097C169.286 69.3425 169.58 70.0147 169.979 70.624C170.399 71.2122 170.946 71.6849 171.618 72.042C172.29 72.3992 173.11 72.5883 174.076 72.6093C175 72.6303 175.883 72.4307 176.723 72.0105C177.584 71.5904 178.351 71.0231 179.023 70.3088L188.351 72.5462C186.691 75.3404 184.465 77.6303 181.67 79.416C178.876 81.1807 175.904 82.0631 172.752 82.0631ZM169.727 61.6744H181.544C181.376 60.771 181.04 59.9727 180.536 59.2794C180.053 58.5862 179.444 58.0399 178.708 57.6408C177.994 57.2416 177.185 57.042 176.282 57.042C175.399 57.042 174.538 57.2416 173.698 57.6408C172.857 58.0399 172.091 58.5862 171.397 59.2794C170.725 59.9727 170.168 60.771 169.727 61.6744Z" fill="#01BE5F"/>
<path d="M155.011 59.1849C153.687 59.1849 152.626 58.7332 151.828 57.8298C151.051 56.9054 150.757 55.7815 150.946 54.458C151.135 53.1555 151.744 52.042 152.773 51.1176C153.824 50.1933 155.011 49.7311 156.334 49.7311C157.637 49.7311 158.687 50.1933 159.486 51.1176C160.284 52.042 160.589 53.1555 160.4 54.458C160.21 55.7815 159.591 56.9054 158.54 57.8298C157.49 58.7332 156.313 59.1849 155.011 59.1849Z" fill="#E89806"/>
<path d="M140.714 49.7311L136.333 81.2437H145.787L148.245 63.7542L149.915 51.7164L150.168 49.7311H140.714Z" fill="#01BE5F"/>
<path d="M115.697 82.0631C112.798 82.0631 110.256 81.3173 108.071 79.8257C105.908 78.3341 104.29 76.3383 103.218 73.8383C102.168 71.3172 101.853 68.5336 102.273 65.4874C102.588 63.1765 103.292 61.0231 104.384 59.0273C105.498 57.0105 106.884 55.2458 108.544 53.7332C110.204 52.1996 112.042 51.0021 114.059 50.1408C116.097 49.2794 118.197 48.8488 120.361 48.8488C123.26 48.8488 125.792 49.5946 127.956 51.0861C130.141 52.5777 131.769 54.584 132.84 57.1051C133.912 59.6261 134.227 62.4202 133.786 65.4874C133.471 67.7773 132.756 69.9202 131.643 71.916C130.55 73.9118 129.174 75.6765 127.515 77.2101C125.855 78.7227 124.017 79.9097 122 80.771C119.983 81.6324 117.882 82.0631 115.697 82.0631ZM117.021 72.6093C118.218 72.6093 119.332 72.2836 120.361 71.6324C121.412 70.9811 122.294 70.1198 123.008 69.0483C123.723 67.9559 124.164 66.7689 124.332 65.4874C124.521 64.1639 124.405 62.9559 123.985 61.8635C123.565 60.771 122.914 59.9097 122.031 59.2794C121.17 58.6282 120.172 58.3025 119.038 58.3025C117.861 58.3025 116.748 58.6387 115.697 59.3109C114.647 59.9622 113.765 60.8341 113.05 61.9265C112.357 63.0189 111.916 64.2059 111.727 65.4874C111.538 66.832 111.653 68.0399 112.074 69.1114C112.515 70.1828 113.166 71.0336 114.027 71.6639C114.889 72.2941 115.887 72.6093 117.021 72.6093Z" fill="#01BE5F"/>
<path d="M96.4874 59.1849C95.1639 59.1849 94.103 58.7332 93.3047 57.8298C92.5274 56.9054 92.2332 55.7815 92.4223 54.458C92.6114 53.1555 93.2206 52.042 94.25 51.1176C95.3005 50.1933 96.4874 49.7311 97.811 49.7311C99.1135 49.7311 100.164 50.1933 100.962 51.1176C101.761 52.042 102.065 53.1555 101.876 54.458C101.687 55.7815 101.067 56.9054 100.017 57.8298C98.9664 58.7332 97.79 59.1849 96.4874 59.1849Z" fill="#E89806"/>
<path d="M87.0276 81.2438L90.1159 59.1849L91.4394 49.7311L92.8259 39.8362H83.3722L81.9856 49.7311H77.889L76.5654 59.1849H80.6621L77.5738 81.2438H87.0276Z" fill="#01BE5F"/>
<circle cx="51.1701" cy="82.5556" r="4.44444" fill="#E89806"/>
<circle cx="28.0589" cy="82.5556" r="4.44444" fill="#E89806"/>
<path d="M12.0565 45.1002C11.589 41.8832 14.0836 39 17.3343 39H70.5872C71.1289 39 71.5447 39.4805 71.4668 40.0167L71.2076 41.8003C70.6997 45.296 67.7028 47.8889 64.1704 47.8889H24.5897C23.506 47.8889 22.6744 48.8502 22.8304 49.9225L23.1262 51.9562C23.3804 53.7038 24.8787 55 26.6447 55H63.1255C66.3762 55 68.8708 57.8832 68.4034 61.1002L66.2997 75.5781C65.7918 79.0737 62.795 81.6667 59.2625 81.6667H57.3292C56.8979 78.6513 54.3047 76.3333 51.1701 76.3333C48.0354 76.3333 45.4422 78.6513 45.0109 81.6667H34.2181C33.7868 78.6513 31.1936 76.3333 28.059 76.3333C24.9245 76.3333 22.3315 78.651 21.8999 81.666C19.2873 81.6254 17.0829 79.6942 16.706 77.1002L16.1151 73.0334C15.9592 71.9611 16.7908 71 17.8744 71H54.5799C56.3502 71 57.8509 69.6975 58.1001 67.9448L58.3883 65.9168C58.5404 64.8462 57.7096 63.8889 56.6282 63.8889H19.4009C16.7516 63.8889 14.5038 61.9442 14.1229 59.3224L12.0565 45.1002Z" fill="url(#paint0_linear_1628_2715)"/>
<path d="M64.4761 37.0602C48.8241 33.8887 32.6952 33.8816 17.0413 37.0382C16.9282 36.4792 16.8158 35.9196 16.7027 35.3607C32.5809 32.1588 48.9398 32.1666 64.8154 35.3827C64.7023 35.9416 64.5886 36.5006 64.4755 37.0602H64.4761Z" fill="url(#paint1_linear_1628_2715)"/>
<path d="M64.6487 34.2376C67.0473 28.5266 69.6237 22.8705 72.3758 17.2764C71.9713 17.1827 71.5668 17.0916 71.1622 17.0018C71.0847 17.0238 65.6981 30.8167 59.2381 29.1081C52.6709 27.5192 55.9619 12.8067 56.0479 12.7789C55.4844 12.7176 54.9203 12.66 54.3561 12.6058C54.3581 12.6348 52.6644 28.5376 47.1705 27.9101C40.0217 27.2516 41.4349 4.2725 41.539 4.22856C41.2876 4.22727 41.0369 4.22662 40.7855 4.22662C40.5264 4.22662 40.2673 4.22662 40.0082 4.22792C40.1122 4.2725 41.5041 27.2523 34.3553 27.9043C28.8607 28.5266 27.1813 12.6226 27.1832 12.5935C26.6191 12.6471 26.055 12.7046 25.4909 12.7654C25.5348 12.8016 27.8992 28.2946 21.2538 29.2477C15.6132 30.1511 10.4366 16.9876 10.3733 16.9746C9.96811 17.0638 9.5636 17.1549 9.15973 17.248C11.9067 22.844 14.4779 28.5033 16.8714 34.2163C32.6435 31.0881 48.879 31.0952 64.6487 34.2382V34.2376Z" fill="url(#paint2_linear_1628_2715)"/>
<path d="M57.4779 12.7635C57.4779 14.0287 56.4524 15.0542 55.1872 15.0542C53.9219 15.0542 52.8964 14.0287 52.8964 12.7635C52.8964 11.4982 53.9219 10.4734 55.1872 10.4734C56.4524 10.4734 57.4779 11.4989 57.4779 12.7635Z" fill="url(#paint3_linear_1628_2715)"/>
<path d="M73.9693 17.1917C73.9693 18.457 72.9438 19.4825 71.6786 19.4825C70.4133 19.4825 69.3878 18.457 69.3878 17.1917C69.3878 15.9265 70.4133 14.901 71.6786 14.901C72.9438 14.901 73.9693 15.9265 73.9693 17.1917Z" fill="url(#paint4_linear_1628_2715)"/>
<path d="M28.5409 12.9922C28.5409 14.2575 27.5154 15.2823 26.2502 15.2823C24.9849 15.2823 23.9594 14.2568 23.9594 12.9922C23.9594 11.7276 24.9849 10.7015 26.2502 10.7015C27.5154 10.7015 28.5409 11.727 28.5409 12.9922Z" fill="url(#paint5_linear_1628_2715)"/>
<path d="M9.83499 19.5587C11.1001 19.5587 12.1257 18.5331 12.1257 17.268C12.1257 16.0029 11.1001 14.9773 9.83499 14.9773C8.56985 14.9773 7.54425 16.0029 7.54425 17.268C7.54425 18.5331 8.56985 19.5587 9.83499 19.5587Z" fill="url(#paint6_linear_1628_2715)"/>
<path d="M44.202 5.03162C44.6475 3.14384 43.4784 1.2523 41.5906 0.806745C39.7028 0.361189 37.8113 1.53034 37.3657 3.41812C36.9202 5.3059 38.0893 7.19744 39.9771 7.64299C41.8649 8.08855 43.7564 6.9194 44.202 5.03162Z" fill="url(#paint7_linear_1628_2715)"/>
<path d="M10.9723 41.3341C3.10171 43.1285 0 40.673 0 40.673C0 40.673 13.9958 54.8717 36.5679 41.4297C49.9181 33.4796 59.3932 30.5233 66.8224 31.1643C82.5636 32.5226 75.9033 50.077 66.7061 42.0875C68.0392 47.341 76.8862 48.2276 79.4464 40.9567C82.8725 31.2264 70.4993 19.5491 39.4596 33.3187C8.42049 47.0884 0.787705 31.4745 0.787705 31.4745C2.79735 38.6834 10.9723 41.3347 10.9723 41.3347V41.3341Z" fill="url(#paint8_linear_1628_2715)"/>
<path d="M56.9512 27.6904C54.0815 29.0965 51.3365 30.8167 48.7149 32.6331C44.22 35.7478 39.9022 39.0873 35.3226 42.0817C35.1527 42.1929 34.975 42.3111 34.7953 42.4358C35.3808 42.1179 35.9708 41.7858 36.5678 41.4304C49.9181 33.4803 59.3932 30.524 66.8224 31.165C82.5636 32.5233 75.9033 50.0777 66.7061 42.0882C68.0392 47.3417 76.8862 48.2283 79.4464 40.9573C82.1339 33.3233 75.0956 24.4944 56.9512 27.6911V27.6904Z" fill="url(#paint9_linear_1628_2715)"/>
<defs>
<linearGradient id="paint0_linear_1628_2715" x1="41.7381" y1="39" x2="41.7381" y2="81.6667" gradientUnits="userSpaceOnUse">
<stop stop-color="#01BE5F"/>
<stop offset="1" stop-color="#A3E635"/>
</linearGradient>
<linearGradient id="paint1_linear_1628_2715" x1="40.7597" y1="37.0602" x2="40.7597" y2="32.9653" gradientUnits="userSpaceOnUse">
<stop stop-color="#A3E635"/>
<stop offset="1" stop-color="#01BE5F"/>
</linearGradient>
<linearGradient id="paint2_linear_1628_2715" x1="40.7681" y1="34.2376" x2="40.7681" y2="4.22533" gradientUnits="userSpaceOnUse">
<stop stop-color="#A3E635"/>
<stop offset="1" stop-color="#01BE5F"/>
</linearGradient>
<linearGradient id="paint3_linear_1628_2715" x1="55.1872" y1="10.4734" x2="55.1872" y2="15.0542" gradientUnits="userSpaceOnUse">
<stop stop-color="#01BE5F"/>
<stop offset="1" stop-color="#A3E635"/>
</linearGradient>
<linearGradient id="paint4_linear_1628_2715" x1="71.6786" y1="14.901" x2="71.6786" y2="19.4825" gradientUnits="userSpaceOnUse">
<stop stop-color="#01BE5F"/>
<stop offset="1" stop-color="#A3E635"/>
</linearGradient>
<linearGradient id="paint5_linear_1628_2715" x1="26.2502" y1="10.7015" x2="26.2502" y2="15.2823" gradientUnits="userSpaceOnUse">
<stop stop-color="#01BE5F"/>
<stop offset="1" stop-color="#A3E635"/>
</linearGradient>
<linearGradient id="paint6_linear_1628_2715" x1="9.83499" y1="14.9773" x2="9.83499" y2="19.5587" gradientUnits="userSpaceOnUse">
<stop stop-color="#01BE5F"/>
<stop offset="1" stop-color="#A3E635"/>
</linearGradient>
<linearGradient id="paint7_linear_1628_2715" x1="40.7838" y1="7.73893" x2="40.7838" y2="0.714851" gradientUnits="userSpaceOnUse">
<stop stop-color="#01BE5F"/>
<stop offset="1" stop-color="#A3E635"/>
</linearGradient>
<linearGradient id="paint8_linear_1628_2715" x1="40" y1="40" x2="2" y2="31" gradientUnits="userSpaceOnUse">
<stop stop-color="#01BE5F"/>
<stop offset="1" stop-color="#A3E635"/>
</linearGradient>
<linearGradient id="paint9_linear_1628_2715" x1="35" y1="27" x2="80" y2="46" gradientUnits="userSpaceOnUse">
<stop stop-color="#01BE5F"/>
<stop offset="1" stop-color="#A3E635"/>
</linearGradient>
</defs>
</svg>
