<svg width="28" height="33" viewBox="0 0 28 33" fill="none" xmlns="http://www.w3.org/2000/svg">
<path fill-rule="evenodd" clip-rule="evenodd" d="M25.0232 5.0009C25.717 5.24381 26.1806 5.89794 26.1806 6.63303V17.3864C26.1806 20.3919 25.0883 23.2608 23.1592 25.4835C22.1892 26.6029 20.9619 27.4745 19.6584 28.1794L14.0094 31.2309L8.35095 28.1778C7.04588 27.4729 5.81701 26.6029 4.84535 25.482C2.91473 23.2592 1.81923 20.3887 1.81923 17.38V6.63303C1.81923 5.89793 2.28283 5.24381 2.97665 5.0009L13.4268 1.3286C13.7983 1.19841 14.2031 1.19841 14.5731 1.3286L25.0232 5.0009Z" stroke="white" stroke-width="2.3" stroke-linecap="round" stroke-linejoin="round"/>
<path d="M9.87323 15.7873L12.8771 18.7928L19.0659 12.604" stroke="white" stroke-width="2.3" stroke-linecap="round" stroke-linejoin="round"/>
</svg>
